<svg width="87" height="73" viewBox="0 0 87 73" fill="none" xmlns="http://www.w3.org/2000/svg">
<circle cx="25.75" cy="40.25" r="5.75" fill="#3F3F3F"/>
<circle cx="37.25" cy="28.75" r="5.75" fill="#3F3F3F"/>
<circle cx="48.75" cy="17.25" r="5.75" fill="#3F3F3F"/>
<circle cx="60.25" cy="5.75" r="5.75" fill="#3F3F3F"/>
<line x1="22.5214" y1="44.2089" x2="64.209" y2="2.52145" stroke="#3F3F3F"/>
<path d="M58.8594 46.12C58.7527 46.1067 58.5994 46.0933 58.3994 46.08C58.2127 46.0667 58.006 46.0533 57.7794 46.04C57.566 46.0267 57.3527 46.0133 57.1394 46C56.9394 46 56.766 46 56.6194 46H55.4394C55.2794 46 55.0927 46 54.8794 46C54.666 46.0133 54.4527 46.0267 54.2394 46.04C54.026 46.0533 53.8194 46.0667 53.6194 46.08C53.4327 46.0933 53.2927 46.1067 53.1994 46.12L53.1594 46.04L53.2194 45.28L53.3194 45.2C53.826 45.2 54.1727 45.14 54.3594 45.02C54.6394 44.8333 54.8127 44.4467 54.8794 43.86C54.8927 43.6333 54.8994 43.2867 54.8994 42.82C54.9127 42.34 54.9194 41.86 54.9194 41.38V36.98C54.9194 36.5133 54.9127 36.1467 54.8994 35.88C54.886 35.6 54.866 35.3267 54.8394 35.06C54.786 34.7 54.726 34.44 54.6594 34.28C54.606 34.12 54.5194 33.9933 54.3994 33.9C54.2927 33.8333 54.1594 33.7867 53.9994 33.76C53.8527 33.7333 53.626 33.72 53.3194 33.72L53.2194 33.64L53.1594 32.88L53.1994 32.8C53.546 32.84 53.886 32.8733 54.2194 32.9C54.566 32.9133 54.8394 32.92 55.0394 32.92H56.5594C56.866 32.92 57.2127 32.9133 57.5994 32.9C57.9994 32.8867 58.346 32.88 58.6394 32.88C60.226 32.88 61.426 33.18 62.2394 33.78C63.0527 34.3667 63.4594 35.2467 63.4594 36.42C63.4594 37.26 63.2127 38.0267 62.7194 38.72C62.2394 39.4 61.5194 39.9933 60.5594 40.5C61.0127 41.18 61.3927 41.7333 61.6994 42.16C62.0194 42.5867 62.2927 42.9267 62.5194 43.18C62.826 43.54 63.1127 43.84 63.3794 44.08C63.646 44.32 63.906 44.52 64.1594 44.68C64.426 44.84 64.6994 44.96 64.9794 45.04C65.2594 45.12 65.5727 45.1733 65.9194 45.2L66.0394 45.28L66.0794 46.04L66.0394 46.12C65.5327 46.1467 65.0927 46.1667 64.7194 46.18C64.346 46.2067 64.0727 46.22 63.8994 46.22C63.1927 46.22 62.5594 46.0267 61.9994 45.64C61.4527 45.24 60.866 44.5667 60.2394 43.62C60.0927 43.4067 59.9327 43.1667 59.7594 42.9C59.5994 42.6333 59.4327 42.3733 59.2594 42.12C59.0994 41.8533 58.946 41.6 58.7994 41.36C58.6527 41.12 58.5327 40.9133 58.4394 40.74H57.1394C57.1394 41.1933 57.1394 41.5867 57.1394 41.92C57.1394 42.24 57.1394 42.52 57.1394 42.76C57.1527 43 57.166 43.2067 57.1794 43.38C57.1927 43.5533 57.206 43.7133 57.2194 43.86C57.2727 44.4733 57.4194 44.86 57.6594 45.02C57.7527 45.0867 57.8727 45.1333 58.0194 45.16C58.166 45.1867 58.4127 45.2 58.7594 45.2L58.8394 45.28L58.8994 46.04L58.8594 46.12ZM58.1594 39.26C59.1327 39.26 59.8927 39.0267 60.4394 38.56C60.9994 38.0933 61.2794 37.4467 61.2794 36.62C61.2794 35.8733 61.0327 35.3333 60.5394 35C60.046 34.6533 59.2594 34.48 58.1794 34.48H57.2394C57.1994 35.0133 57.1727 35.4267 57.1594 35.72C57.146 36.0133 57.1394 36.2933 57.1394 36.56V38.52C57.1394 38.8 57.1727 38.9933 57.2394 39.1C57.306 39.2067 57.4327 39.26 57.6194 39.26H58.1594Z" fill="#3F3F3F"/>
<path d="M22.1796 12.7L22.0396 11.9C22.2796 11.4733 22.5596 11 22.8796 10.48C23.1996 9.96 23.5329 9.42667 23.8796 8.88C24.2263 8.33333 24.5729 7.79333 24.9196 7.26C25.2796 6.72667 25.6063 6.23333 25.8996 5.78C26.2063 5.32667 26.4729 4.93333 26.6996 4.6C26.9396 4.26667 27.1196 4.02667 27.2396 3.88L29.3396 3.7H29.4996L29.7396 4.12C29.7129 4.30667 29.6929 4.54 29.6796 4.82C29.6796 5.1 29.6729 5.31333 29.6596 5.46C29.6463 5.67333 29.6329 5.87333 29.6196 6.06C29.6196 6.24667 29.6129 6.46667 29.5996 6.72C29.5996 6.97333 29.5996 7.28 29.5996 7.64C29.5996 8 29.5996 8.46 29.5996 9.02V11.3H31.2996L31.3796 11.42L31.1596 12.84L31.0196 12.94H29.5996C29.5996 13.2067 29.5996 13.44 29.5996 13.64C29.5996 13.8267 29.5996 13.9933 29.5996 14.14C29.6129 14.2867 29.6196 14.4267 29.6196 14.56C29.6329 14.68 29.6529 14.8133 29.6796 14.96C29.7063 15.24 29.7663 15.4533 29.8596 15.6C29.9663 15.7333 30.0729 15.8467 30.1796 15.94C30.2863 16.0333 30.4663 16.1067 30.7196 16.16C30.9863 16.2133 31.2196 16.24 31.4196 16.24L31.4996 16.34L31.5396 17L31.4996 17.08C31.4063 17.08 31.2663 17.0733 31.0796 17.06C30.8929 17.0467 30.6929 17.0333 30.4796 17.02C30.2796 17.02 30.0863 17.0133 29.8996 17C29.7129 17 29.5729 17 29.4796 17H27.5596C27.4663 17 27.3129 17 27.0996 17C26.8863 17.0133 26.6596 17.02 26.4196 17.02C26.1929 17.0333 25.9729 17.0467 25.7596 17.06C25.5463 17.0733 25.3929 17.08 25.2996 17.08L25.2796 17L25.3596 16.32L25.4396 16.24C25.5463 16.24 25.6663 16.2333 25.7996 16.22C25.9463 16.2067 26.0863 16.1867 26.2196 16.16C26.3663 16.1333 26.4929 16.1067 26.5996 16.08C26.7196 16.04 26.8063 15.9933 26.8596 15.94C26.9796 15.8467 27.0863 15.7267 27.1796 15.58C27.2863 15.4333 27.3396 15.2267 27.3396 14.96C27.3663 14.7067 27.3863 14.42 27.3996 14.1C27.4129 13.78 27.4196 13.3933 27.4196 12.94H23.0396L22.1796 12.7ZM27.3596 6.18C27.1729 6.38 26.9396 6.68 26.6596 7.08C26.3796 7.48 26.0863 7.92 25.7796 8.4C25.4729 8.88 25.1729 9.37333 24.8796 9.88C24.5863 10.3867 24.3396 10.86 24.1396 11.3H27.4196V9.06C27.4196 8.84667 27.4196 8.61333 27.4196 8.36C27.4196 8.09333 27.4129 7.83333 27.3996 7.58C27.3996 7.31333 27.3929 7.06 27.3796 6.82C27.3796 6.58 27.3729 6.36667 27.3596 6.18Z" fill="#3F3F3F"/>
<path d="M1.56047 63.7L1.42047 62.9C1.66047 62.4733 1.94047 62 2.26047 61.48C2.58047 60.96 2.9138 60.4267 3.26047 59.88C3.60714 59.3333 3.9538 58.7933 4.30047 58.26C4.66047 57.7267 4.98714 57.2333 5.28047 56.78C5.58714 56.3267 5.8538 55.9333 6.08047 55.6C6.32047 55.2667 6.50047 55.0267 6.62047 54.88L8.72047 54.7H8.88047L9.12047 55.12C9.0938 55.3067 9.0738 55.54 9.06047 55.82C9.06047 56.1 9.0538 56.3133 9.04047 56.46C9.02714 56.6733 9.0138 56.8733 9.00047 57.06C9.00047 57.2467 8.9938 57.4667 8.98047 57.72C8.98047 57.9733 8.98047 58.28 8.98047 58.64C8.98047 59 8.98047 59.46 8.98047 60.02V62.3H10.6805L10.7605 62.42L10.5405 63.84L10.4005 63.94H8.98047C8.98047 64.2067 8.98047 64.44 8.98047 64.64C8.98047 64.8267 8.98047 64.9933 8.98047 65.14C8.9938 65.2867 9.00047 65.4267 9.00047 65.56C9.0138 65.68 9.0338 65.8133 9.06047 65.96C9.08714 66.24 9.14714 66.4533 9.24047 66.6C9.34714 66.7333 9.4538 66.8467 9.56047 66.94C9.66714 67.0333 9.84714 67.1067 10.1005 67.16C10.3671 67.2133 10.6005 67.24 10.8005 67.24L10.8805 67.34L10.9205 68L10.8805 68.08C10.7871 68.08 10.6471 68.0733 10.4605 68.06C10.2738 68.0467 10.0738 68.0333 9.86047 68.02C9.66047 68.02 9.46714 68.0133 9.28047 68C9.0938 68 8.9538 68 8.86047 68H6.94047C6.84714 68 6.6938 68 6.48047 68C6.26714 68.0133 6.04047 68.02 5.80047 68.02C5.5738 68.0333 5.3538 68.0467 5.14047 68.06C4.92714 68.0733 4.7738 68.08 4.68047 68.08L4.66047 68L4.74047 67.32L4.82047 67.24C4.92714 67.24 5.04714 67.2333 5.18047 67.22C5.32714 67.2067 5.46714 67.1867 5.60047 67.16C5.74714 67.1333 5.8738 67.1067 5.98047 67.08C6.10047 67.04 6.18714 66.9933 6.24047 66.94C6.36047 66.8467 6.46714 66.7267 6.56047 66.58C6.66714 66.4333 6.72047 66.2267 6.72047 65.96C6.74714 65.7067 6.76714 65.42 6.78047 65.1C6.7938 64.78 6.80047 64.3933 6.80047 63.94H2.42047L1.56047 63.7ZM6.74047 57.18C6.5538 57.38 6.32047 57.68 6.04047 58.08C5.76047 58.48 5.46714 58.92 5.16047 59.4C4.8538 59.88 4.5538 60.3733 4.26047 60.88C3.96714 61.3867 3.72047 61.86 3.52047 62.3H6.80047V60.06C6.80047 59.8467 6.80047 59.6133 6.80047 59.36C6.80047 59.0933 6.7938 58.8333 6.78047 58.58C6.78047 58.3133 6.7738 58.06 6.76047 57.82C6.76047 57.58 6.7538 57.3667 6.74047 57.18ZM19.9013 62.4L19.5813 64.04H13.0213L13.3213 62.4H19.9013ZM26.6428 68.08C26.5495 68.08 26.4095 68.0733 26.2228 68.06C26.0361 68.0467 25.8361 68.0333 25.6228 68.02C25.4095 68.02 25.2095 68.0133 25.0228 68C24.8361 68 24.6961 68 24.6028 68H23.5228C23.4295 68 23.2828 68 23.0828 68C22.8961 68.0133 22.6961 68.02 22.4828 68.02C22.2828 68.0333 22.0828 68.0467 21.8828 68.06C21.6961 68.0733 21.5561 68.08 21.4628 68.08L21.4428 68L21.4828 67.32L21.5428 67.24C21.7428 67.24 21.9495 67.2333 22.1628 67.22C22.3761 67.1933 22.5361 67.1267 22.6428 67.02C22.7361 66.9267 22.8028 66.8067 22.8428 66.66C22.8828 66.5133 22.9161 66.3067 22.9428 66.04C22.9561 65.9467 22.9628 65.8533 22.9628 65.76C22.9761 65.6667 22.9828 65.5667 22.9828 65.46C22.9961 65.3533 23.0028 65.2267 23.0028 65.08C23.0028 64.9333 23.0028 64.7533 23.0028 64.54V62.28C23.0028 62.0267 23.0028 61.8267 23.0028 61.68C23.0028 61.52 22.9961 61.3867 22.9828 61.28C22.9828 61.1733 22.9761 61.08 22.9628 61C22.9628 60.9067 22.9561 60.8 22.9428 60.68C22.9161 60.5467 22.8761 60.42 22.8228 60.3C22.7695 60.18 22.7228 60.1 22.6828 60.06C22.5495 59.8867 22.3828 59.7867 22.1828 59.76C21.9828 59.7333 21.7761 59.72 21.5628 59.72L21.4828 59.64V58.96L21.5628 58.9H22.5828C22.8895 58.9 23.2161 58.9 23.5628 58.9C23.9095 58.8867 24.2161 58.86 24.4828 58.82L25.1828 58.72L25.3028 59.1C25.2761 59.1533 25.2495 59.24 25.2228 59.36C25.2095 59.4667 25.1961 59.5867 25.1828 59.72C25.1828 59.84 25.1761 59.9667 25.1628 60.1C25.1628 60.22 25.1628 60.32 25.1628 60.4C25.1628 60.5067 25.1561 60.6067 25.1428 60.7C25.1428 60.78 25.1428 60.88 25.1428 61C25.1428 61.1067 25.1361 61.2467 25.1228 61.42C25.1228 61.5933 25.1228 61.8067 25.1228 62.06V64.3C25.1228 64.5667 25.1228 64.7867 25.1228 64.96C25.1361 65.12 25.1428 65.26 25.1428 65.38C25.1561 65.5 25.1628 65.6133 25.1628 65.72C25.1761 65.8133 25.1895 65.92 25.2028 66.04C25.2295 66.32 25.2561 66.5333 25.2828 66.68C25.3228 66.8133 25.3961 66.9267 25.5028 67.02C25.6095 67.1267 25.7561 67.1933 25.9428 67.22C26.1428 67.2333 26.3428 67.24 26.5428 67.24L26.6428 67.34L26.6828 68L26.6428 68.08ZM22.5828 55.74C22.5828 55.58 22.6161 55.42 22.6828 55.26C22.7495 55.1 22.8428 54.96 22.9628 54.84C23.0828 54.7067 23.2161 54.6067 23.3628 54.54C23.5228 54.46 23.6895 54.42 23.8628 54.42C24.1961 54.42 24.4961 54.56 24.7628 54.84C25.0428 55.1067 25.1828 55.4067 25.1828 55.74C25.1828 55.9133 25.1428 56.08 25.0628 56.24C24.9961 56.3867 24.8961 56.52 24.7628 56.64C24.6428 56.76 24.5028 56.8533 24.3428 56.92C24.1828 56.9867 24.0228 57.02 23.8628 57.02C23.5161 57.02 23.2161 56.8933 22.9628 56.64C22.7095 56.3867 22.5828 56.0867 22.5828 55.74ZM31.2761 60.54C31.5828 59.9533 32.0028 59.4667 32.5361 59.08C33.0694 58.6933 33.6961 58.5 34.4161 58.5C34.8294 58.5 35.2361 58.5533 35.6361 58.66C36.0361 58.7667 36.3961 58.9333 36.7161 59.16C37.0494 59.3867 37.3228 59.68 37.5361 60.04C37.7628 60.3867 37.9094 60.8 37.9761 61.28C38.0161 61.6267 38.0361 61.9933 38.0361 62.38C38.0494 62.7667 38.0561 63.1533 38.0561 63.54C38.0694 63.9933 38.0761 64.4133 38.0761 64.8C38.0761 65.1733 38.0761 65.5867 38.0761 66.04C38.0761 66.3467 38.1094 66.58 38.1761 66.74C38.2561 66.8867 38.3494 66.9867 38.4561 67.04C38.6028 67.12 38.7561 67.1733 38.9161 67.2C39.0894 67.2267 39.2828 67.24 39.4961 67.24L39.5561 67.32L39.5961 68L39.5561 68.08C39.2761 68.0533 38.9628 68.0333 38.6161 68.02C38.2828 68.0067 37.9561 68 37.6361 68C37.3161 68 36.9961 68 36.6761 68C36.3561 68.0133 36.0561 68.0333 35.7761 68.06L35.6361 67.66C35.6761 67.4867 35.7094 67.2267 35.7361 66.88C35.7761 66.5333 35.8028 66.2533 35.8161 66.04C35.8428 65.5333 35.8628 65.06 35.8761 64.62C35.8894 64.18 35.8961 63.7867 35.8961 63.44C35.8961 63.1333 35.8894 62.8 35.8761 62.44C35.8628 62.08 35.8161 61.7667 35.7361 61.5C35.6294 61.0733 35.4094 60.76 35.0761 60.56C34.7561 60.3467 34.3828 60.24 33.9561 60.24C33.5561 60.24 33.1894 60.3133 32.8561 60.46C32.5228 60.6067 32.2361 60.7867 31.9961 61C31.7694 61.2 31.5894 61.4133 31.4561 61.64C31.3228 61.8667 31.2561 62.0667 31.2561 62.24V64.3C31.2561 64.5667 31.2561 64.7867 31.2561 64.96C31.2561 65.12 31.2561 65.26 31.2561 65.38C31.2694 65.5 31.2761 65.6133 31.2761 65.72C31.2894 65.8133 31.3028 65.92 31.3161 66.04C31.3428 66.32 31.3961 66.5333 31.4761 66.68C31.5694 66.8133 31.6694 66.9267 31.7761 67.02C31.8828 67.1267 32.0094 67.1933 32.1561 67.22C32.3028 67.2333 32.4761 67.24 32.6761 67.24L32.7761 67.34L32.8161 68L32.7761 68.08C32.6828 68.08 32.5428 68.0733 32.3561 68.06C32.1694 68.0467 31.9694 68.0333 31.7561 68.02C31.5428 68.02 31.3428 68.0133 31.1561 68C30.9694 68 30.8294 68 30.7361 68H29.6361C29.5428 68 29.3961 68 29.1961 68C29.0094 68.0133 28.8094 68.02 28.5961 68.02C28.3961 68.0333 28.1961 68.0467 27.9961 68.06C27.8094 68.0733 27.6694 68.08 27.5761 68.08L27.5561 68L27.5961 67.32L27.6561 67.24C27.8694 67.24 28.0561 67.2333 28.2161 67.22C28.3894 67.1933 28.5294 67.1267 28.6361 67.02C28.7294 66.9267 28.8161 66.8067 28.8961 66.66C28.9761 66.5133 29.0294 66.3067 29.0561 66.04C29.0694 65.9467 29.0761 65.8533 29.0761 65.76C29.0894 65.6667 29.0961 65.5667 29.0961 65.46C29.1094 65.3533 29.1161 65.2267 29.1161 65.08C29.1161 64.9333 29.1161 64.7533 29.1161 64.54V62.48C29.1161 62.2267 29.1161 62.0133 29.1161 61.84C29.1161 61.6667 29.1094 61.5133 29.0961 61.38C29.0961 61.2467 29.0894 61.1267 29.0761 61.02C29.0761 60.9133 29.0694 60.8 29.0561 60.68C29.0294 60.5467 28.9894 60.42 28.9361 60.3C28.8828 60.18 28.8361 60.1 28.7961 60.06C28.6628 59.8867 28.4961 59.7867 28.2961 59.76C28.0961 59.7333 27.8894 59.72 27.6761 59.72L27.5961 59.64V58.96L27.6761 58.9H28.6961C29.0028 58.9 29.3294 58.9 29.6761 58.9C30.0361 58.8867 30.3494 58.86 30.6161 58.82L31.3161 58.72L31.4361 59.1C31.3294 59.2467 31.2628 59.4533 31.2361 59.72C31.2228 59.9733 31.2161 60.2333 31.2161 60.5L31.2761 60.54ZM47.7333 62.4L47.4133 64.04H40.8533L41.1533 62.4H47.7333ZM52.7748 60.92C52.9082 60.6667 53.0548 60.4 53.2148 60.12C53.3882 59.84 53.5815 59.58 53.7948 59.34C54.0082 59.1 54.2482 58.9 54.5148 58.74C54.7948 58.58 55.1082 58.5 55.4548 58.5C55.5615 58.5 55.6882 58.5133 55.8348 58.54C55.9948 58.5533 56.1482 58.58 56.2948 58.62C56.4548 58.66 56.6082 58.7067 56.7548 58.76C56.9015 58.8133 57.0148 58.8733 57.0948 58.94L57.2348 59.06L56.9948 61.22H56.1348C56.0948 61.06 55.9882 60.9 55.8148 60.74C55.6548 60.5667 55.4015 60.48 55.0548 60.48C54.7482 60.48 54.4682 60.56 54.2148 60.72C53.9615 60.8667 53.7415 61.0533 53.5548 61.28C53.3682 61.5067 53.2215 61.7533 53.1148 62.02C53.0082 62.2733 52.9548 62.5067 52.9548 62.72V64.1C52.9548 64.6067 52.9548 64.9867 52.9548 65.24C52.9682 65.4933 52.9815 65.7133 52.9948 65.9C53.0215 66.1933 53.0548 66.4333 53.0948 66.62C53.1482 66.7933 53.2282 66.9267 53.3348 67.02C53.3882 67.0733 53.4682 67.12 53.5748 67.16C53.6948 67.1867 53.8148 67.2067 53.9348 67.22C54.0548 67.2333 54.1682 67.24 54.2748 67.24C54.3948 67.24 54.4882 67.24 54.5548 67.24L54.6548 67.34L54.6948 68L54.6548 68.08C54.5748 68.08 54.4415 68.0733 54.2548 68.06C54.0682 68.0467 53.8682 68.0333 53.6548 68.02C53.4415 68.02 53.2415 68.0133 53.0548 68C52.8682 68 52.7348 68 52.6548 68H51.3748C51.2815 68 51.1348 68 50.9348 68C50.7482 68.0133 50.5482 68.02 50.3348 68.02C50.1215 68.0333 49.9148 68.0467 49.7148 68.06C49.5282 68.0733 49.3882 68.08 49.2948 68.08L49.2748 68L49.3148 67.32L49.3748 67.24C49.6015 67.24 49.8148 67.2333 50.0148 67.22C50.2148 67.1933 50.3682 67.1267 50.4748 67.02C50.5815 66.9267 50.6548 66.8067 50.6948 66.66C50.7482 66.5133 50.7882 66.26 50.8148 65.9C50.8282 65.74 50.8348 65.5267 50.8348 65.26C50.8348 64.9933 50.8348 64.62 50.8348 64.14V62.68C50.8348 62.4 50.8348 62.1667 50.8348 61.98C50.8348 61.78 50.8282 61.6067 50.8148 61.46C50.8148 61.3133 50.8082 61.18 50.7948 61.06C50.7948 60.94 50.7882 60.8133 50.7748 60.68C50.7482 60.5467 50.7082 60.42 50.6548 60.3C50.6015 60.18 50.5548 60.1 50.5148 60.06C50.3815 59.8867 50.2148 59.7867 50.0148 59.76C49.8148 59.7333 49.6082 59.72 49.3948 59.72L49.3148 59.64V58.96L49.3948 58.9H49.7548C50.0482 58.9 50.4282 58.9 50.8948 58.9C51.3615 58.8867 51.7682 58.86 52.1148 58.82L52.8148 58.72L52.9348 59.1C52.8548 59.3533 52.7948 59.64 52.7548 59.96C52.7282 60.28 52.7148 60.5933 52.7148 60.9L52.7748 60.92ZM63.0653 58.5C63.852 58.5 64.552 58.64 65.1653 58.92C65.7786 59.1867 66.292 59.5533 66.7053 60.02C67.132 60.4733 67.452 61 67.6653 61.6C67.892 62.2 68.0053 62.82 68.0053 63.46C68.0053 64.0733 67.9053 64.6667 67.7053 65.24C67.5053 65.8133 67.1986 66.32 66.7853 66.76C66.372 67.2 65.8586 67.5533 65.2453 67.82C64.632 68.0867 63.9186 68.22 63.1053 68.22C62.2653 68.22 61.532 68.08 60.9053 67.8C60.2786 67.52 59.7586 67.1533 59.3453 66.7C58.9453 66.2467 58.6453 65.7333 58.4453 65.16C58.2453 64.5733 58.1453 63.9733 58.1453 63.36C58.1453 62.7067 58.2586 62.0867 58.4853 61.5C58.712 60.9133 59.032 60.4 59.4453 59.96C59.872 59.5067 60.3853 59.1533 60.9853 58.9C61.5986 58.6333 62.292 58.5 63.0653 58.5ZM63.0853 66.84C63.4986 66.84 63.8586 66.7467 64.1653 66.56C64.4853 66.36 64.752 66.1067 64.9653 65.8C65.1786 65.48 65.332 65.12 65.4253 64.72C65.532 64.3067 65.5853 63.8867 65.5853 63.46C65.5853 63.0467 65.5253 62.6333 65.4053 62.22C65.2986 61.7933 65.132 61.4133 64.9053 61.08C64.692 60.7467 64.4253 60.4733 64.1053 60.26C63.7853 60.0467 63.4186 59.94 63.0053 59.94C62.5786 59.94 62.2053 60.04 61.8853 60.24C61.5786 60.44 61.3253 60.7 61.1253 61.02C60.9253 61.34 60.772 61.7 60.6653 62.1C60.572 62.5 60.5253 62.9067 60.5253 63.32C60.5253 63.7467 60.5786 64.1667 60.6853 64.58C60.8053 64.9933 60.972 65.3733 61.1853 65.72C61.412 66.0533 61.6853 66.3267 62.0053 66.54C62.3253 66.74 62.6853 66.84 63.0853 66.84ZM79.5586 68.1L79.3186 68.02L78.1386 64.76C77.9786 64.3333 77.8319 63.9333 77.6986 63.56C77.5786 63.1867 77.4319 62.7867 77.2586 62.36C77.1653 62.6267 77.0719 62.8933 76.9786 63.16C76.8853 63.4267 76.7986 63.6733 76.7186 63.9C76.6386 64.1267 76.5653 64.3267 76.4986 64.5C76.4453 64.6733 76.4119 64.7867 76.3986 64.84L75.3786 68L73.3186 68.1L73.1186 68L71.7186 64.8C71.6519 64.6667 71.5586 64.4667 71.4386 64.2C71.3319 63.92 71.2053 63.6133 71.0586 63.28C70.9253 62.9467 70.7786 62.5933 70.6186 62.22C70.4586 61.8467 70.2986 61.4933 70.1386 61.16C70.0053 60.88 69.8719 60.6267 69.7386 60.4C69.6053 60.1867 69.4519 60.02 69.2786 59.9C69.1186 59.78 68.8986 59.7067 68.6186 59.68L68.4986 59.58V58.9L68.5786 58.82C68.8053 58.8467 69.0453 58.8733 69.2986 58.9C69.5519 58.9267 69.7853 58.94 69.9986 58.94H71.5786C71.7786 58.94 72.0186 58.9267 72.2986 58.9C72.5919 58.8733 72.8586 58.8467 73.0986 58.82L73.1786 58.9V59.54L73.0986 59.62C72.8453 59.6467 72.6253 59.7267 72.4386 59.86C72.2653 59.98 72.1786 60.16 72.1786 60.4C72.1786 60.56 72.2319 60.8333 72.3386 61.22C72.4586 61.6067 72.5919 62.0133 72.7386 62.44C72.8853 62.8667 73.0253 63.2733 73.1586 63.66C73.3053 64.0333 73.4053 64.2867 73.4586 64.42L74.3386 66.52L75.0986 64.42C75.2319 64.06 75.3586 63.68 75.4786 63.28C75.5986 62.88 75.6986 62.5 75.7786 62.14C75.8719 61.7667 75.9453 61.4267 75.9986 61.12C76.0519 60.8133 76.0786 60.5733 76.0786 60.4C76.0786 60.2533 76.0386 60.1333 75.9586 60.04C75.8786 59.9467 75.7853 59.8733 75.6786 59.82C75.5719 59.7667 75.4586 59.7333 75.3386 59.72C75.2319 59.6933 75.1386 59.68 75.0586 59.68L74.9386 59.58V58.9L75.0186 58.82C75.2453 58.8467 75.4853 58.8733 75.7386 58.9C75.9919 58.9267 76.2253 58.94 76.4386 58.94H78.0186C78.2186 58.94 78.4586 58.9267 78.7386 58.9C79.0319 58.8733 79.2986 58.8467 79.5386 58.82L79.6186 58.9V59.54L79.5386 59.62C79.2853 59.6467 79.0653 59.7267 78.8786 59.86C78.7053 59.98 78.6186 60.16 78.6186 60.4C78.6186 60.56 78.6719 60.8333 78.7786 61.22C78.8853 61.6067 79.0053 62.0133 79.1386 62.44C79.2719 62.8667 79.3986 63.2733 79.5186 63.66C79.6519 64.0333 79.7453 64.2867 79.7986 64.42L80.5786 66.52L81.3786 64.42C81.4719 64.18 81.5853 63.8867 81.7186 63.54C81.8653 63.1933 81.9986 62.8333 82.1186 62.46C82.2519 62.0867 82.3586 61.72 82.4386 61.36C82.5319 61 82.5786 60.68 82.5786 60.4C82.5786 60.1067 82.4786 59.9133 82.2786 59.82C82.0786 59.7133 81.8653 59.6467 81.6386 59.62L81.5586 59.54V58.9L81.6386 58.82C81.8919 58.8733 82.1319 58.9067 82.3586 58.92C82.5853 58.9333 82.7986 58.94 82.9986 58.94H84.6186C84.8453 58.94 85.0653 58.9267 85.2786 58.9C85.5053 58.8733 85.7453 58.8467 85.9986 58.82L86.0786 58.9V59.58L85.9586 59.68C85.7319 59.7067 85.5319 59.78 85.3586 59.9C85.1986 60.0067 85.0453 60.1733 84.8986 60.4C84.6719 60.76 84.4319 61.1933 84.1786 61.7C83.9386 62.2067 83.7053 62.7133 83.4786 63.22C83.2653 63.7133 83.0719 64.1667 82.8986 64.58C82.7386 64.9933 82.6319 65.28 82.5786 65.44L81.6186 68L79.5586 68.1Z" fill="#3F3F3F"/>
</svg>
